<svg width="104" height="104" viewBox="0 0 104 104" fill="none" xmlns="http://www.w3.org/2000/svg">
<path d="M104 15C104 6.71573 97.2843 0 89 0H15C6.71573 0 0 6.71573 0 15V89C0 97.2843 6.71573 104 15 104H89C97.2843 104 104 97.2843 104 89V15Z" fill="#F8680C"/>
<path d="M22.7168 95.1276H27.1736V74.8697H22.7168V95.1276ZM39.9071 74.8697H31.3023V95.1276H35.759V86.928H39.9071C43.322 86.928 45.9459 84.4006 45.9459 80.9857C45.9459 77.6094 43.322 74.8697 39.9071 74.8697ZM39.1932 83.243H35.759V78.7862H39.1932C40.6209 78.7862 41.7014 79.693 41.7014 81.0243C41.7014 82.3748 40.6209 83.243 39.1932 83.243ZM60.4351 78.7862V74.8697H48.2418V95.1276H52.6985V86.9666H59.3161V83.05H52.6985V78.7862H60.4351ZM72.4162 95.3977C76.4292 95.3977 79.9212 93.1404 81.6383 89.822L77.7797 87.8348C76.815 89.7641 74.8085 91.0374 72.4162 91.0374C69.0013 91.0374 66.416 88.4136 66.416 84.9987C66.416 81.5838 69.0013 78.9599 72.4162 78.9599C74.8085 78.9599 76.815 80.2332 77.7797 82.1626L81.6383 80.1753C79.9212 76.8569 76.4292 74.5996 72.4162 74.5996C66.6861 74.5996 62.0171 79.2686 62.0171 84.9987C62.0171 90.748 66.6861 95.3977 72.4162 95.3977Z" fill="white"/>
<path d="M73.3434 62.0109C73.0086 65.3187 70.3507 67.6948 67.4038 67.3187L42.3283 64.1103C39.3836 63.732 37.2682 60.7466 37.6029 57.4388L41.9855 14.2193C42.3225 10.9115 44.9796 8.53608 47.9273 8.91297L73.0021 12.1206C75.9482 12.4982 78.0629 15.4843 77.7267 18.7921L73.3434 62.0109Z" fill="white"/>
<path d="M39.1352 66.236C36.1905 65.8591 34.0743 62.8723 34.4091 59.5644L38.7924 16.3456C38.8672 15.5976 39.0709 14.8682 39.3944 14.1896H36.775C33.81 14.1896 31.4077 16.8881 31.4077 20.2177V63.7139C31.4077 67.0443 33.81 69.7428 36.775 69.7428H62.0132C62.6421 69.7428 63.2427 69.6143 63.8048 69.3913L39.1352 66.236Z" fill="white"/>
</svg>
