<svg width="104" height="104" viewBox="0 0 104 104" fill="none" xmlns="http://www.w3.org/2000/svg">
<path d="M104 0H0V104H104V0Z" fill="#F8680C"/>
<path d="M22.7167 95.1276H27.1735V74.8697H22.7167V95.1276ZM39.907 74.8697H31.3022V95.1276H35.7589V86.928H39.907C43.3219 86.928 45.9458 84.4006 45.9458 80.9857C45.9458 77.6094 43.3219 74.8697 39.907 74.8697ZM39.1931 83.243H35.7589V78.7862H39.1931C40.6208 78.7862 41.7013 79.693 41.7013 81.0243C41.7013 82.3748 40.6208 83.243 39.1931 83.243ZM60.435 78.7862V74.8697H48.2417V95.1276H52.6984V86.9666H59.316V83.05H52.6984V78.7862H60.435ZM72.4161 95.3977C76.4291 95.3977 79.9211 93.1404 81.6382 89.822L77.7796 87.8348C76.8149 89.7641 74.8084 91.0374 72.4161 91.0374C69.0012 91.0374 66.4159 88.4136 66.4159 84.9987C66.4159 81.5838 69.0012 78.9599 72.4161 78.9599C74.8084 78.9599 76.8149 80.2332 77.7796 82.1626L81.6382 80.1753C79.9211 76.8569 76.4291 74.5996 72.4161 74.5996C66.686 74.5996 62.017 79.2686 62.017 84.9987C62.017 90.748 66.686 95.3977 72.4161 95.3977Z" fill="white"/>
<path d="M73.3435 62.0109C73.0087 65.3187 70.3508 67.6948 67.4039 67.3187L42.3284 64.1103C39.3837 63.732 37.2683 60.7466 37.603 57.4388L41.9856 14.2193C42.3226 10.9115 44.9797 8.53608 47.9274 8.91297L73.0022 12.1206C75.9483 12.4982 78.063 15.4843 77.7268 18.7921L73.3435 62.0109Z" fill="white"/>
<path d="M39.1351 66.236C36.1904 65.8591 34.0742 62.8723 34.409 59.5644L38.7923 16.3456C38.8671 15.5976 39.0708 14.8682 39.3943 14.1896H36.7749C33.8099 14.1896 31.4076 16.8881 31.4076 20.2177V63.7139C31.4076 67.0443 33.8099 69.7428 36.7749 69.7428H62.0131C62.642 69.7428 63.2426 69.6143 63.8047 69.3913L39.1351 66.236Z" fill="white"/>
</svg>
