<?xml version="1.0" standalone="no"?>
<!DOCTYPE svg PUBLIC "-//W3C//DTD SVG 20010904//EN"
 "http://www.w3.org/TR/2001/REC-SVG-20010904/DTD/svg10.dtd">
<svg version="1.0" xmlns="http://www.w3.org/2000/svg"
 width="474.000000pt" height="556.000000pt" viewBox="0 0 474.000000 556.000000"
 preserveAspectRatio="xMidYMid meet">

<g transform="translate(0.000000,556.000000) scale(0.100000,-0.100000)"
fill="#000000" stroke="none">
<path d="M2231 5392 c-51 -99 -211 -282 -247 -282 -7 0 -20 13 -29 29 -16 31
-73 81 -93 81 -8 0 -10 -18 -6 -57 9 -86 -9 -139 -67 -197 -27 -27 -51 -47
-54 -44 -3 2 0 20 5 39 15 53 12 91 -12 139 -30 57 -44 60 -52 12 -3 -22 -14
-50 -24 -62 l-18 -22 -17 54 c-36 113 -89 170 -95 103 -13 -140 -71 -332 -132
-435 -41 -70 -134 -170 -158 -170 -12 0 -14 12 -10 70 3 39 2 70 -2 70 -13 0
-55 -52 -125 -153 -43 -62 -91 -118 -125 -145 -108 -85 -160 -134 -175 -162
-8 -16 -26 -69 -39 -118 -29 -107 -46 -141 -87 -176 -44 -37 -54 -29 -51 38 1
31 -2 56 -6 56 -26 0 -74 -90 -92 -172 -18 -79 -28 -77 -45 10 -6 28 -9 31
-22 21 -23 -20 -53 -85 -59 -132 -4 -28 0 -65 10 -100 9 -30 16 -58 16 -61 0
-11 -41 -6 -70 9 -19 10 -30 11 -30 5 0 -19 27 -64 54 -89 14 -14 26 -29 26
-35 -1 -14 -79 -73 -135 -101 l-43 -22 25 -12 c14 -7 45 -14 70 -18 35 -5 43
-9 38 -22 -13 -30 -48 -361 -40 -369 2 -2 19 18 39 44 25 33 37 42 41 32 3 -8
-3 -68 -15 -133 -11 -65 -20 -129 -20 -144 l1 -26 28 35 c16 19 31 33 34 30 2
-3 10 -34 16 -70 7 -36 33 -117 58 -180 24 -63 72 -189 105 -280 33 -90 91
-236 128 -325 37 -88 75 -183 83 -211 21 -71 39 -105 117 -214 37 -52 84 -123
104 -157 58 -99 149 -206 228 -270 40 -32 129 -107 197 -167 68 -59 140 -115
160 -123 52 -22 160 -13 238 21 72 30 111 33 156 10 18 -9 95 -78 172 -154
139 -135 170 -157 298 -209 24 -10 28 -16 25 -48 l-3 -38 56 3 c63 4 74 -6 59
-57 -10 -37 12 -74 42 -69 21 3 27 10 50 63 8 19 21 30 33 30 32 0 29 -37 -5
-79 -36 -46 -38 -85 -7 -114 27 -26 79 -29 117 -7 35 20 81 18 135 -5 82 -35
95 -32 287 74 55 30 71 35 88 26 27 -15 26 -21 -15 -63 -35 -36 -44 -61 -25
-72 6 -4 41 8 78 25 117 56 172 70 301 80 135 11 160 20 181 69 14 36 44 41
62 11 19 -30 44 -24 77 18 20 24 47 43 78 54 32 11 54 27 65 46 10 17 69 64
134 107 238 158 288 244 315 533 13 144 5 749 -12 844 -15 87 -145 561 -171
621 -12 28 -39 79 -60 112 -48 74 -63 126 -83 285 -23 181 -42 282 -72 363
-33 91 -57 129 -142 222 -62 68 -77 94 -146 248 -127 283 -170 358 -293 520
-143 188 -175 225 -265 306 -40 35 -73 68 -75 73 -2 4 28 8 67 8 39 0 71 4 71
9 0 17 -84 80 -141 106 -30 13 -100 34 -154 45 -84 17 -132 36 -305 119 -113
55 -236 110 -275 122 -97 31 -186 31 -253 0 -29 -14 -54 -22 -58 -19 -3 3 3
32 12 64 13 41 18 94 19 176 0 137 -11 164 -44 100z m429 -981 c0 -31 16 -33
34 -6 22 34 38 22 30 -21 -8 -43 7 -44 36 -4 12 17 27 27 35 24 8 -3 38 1 69
10 144 42 286 0 490 -145 109 -78 282 -249 370 -366 36 -48 103 -154 150 -236
l85 -150 -27 -27 c-24 -25 -36 -28 -104 -32 l-78 -3 -49 -54 c-42 -45 -53 -53
-73 -47 -65 20 -66 20 -78 -20 -10 -34 -9 -47 9 -93 12 -29 19 -62 15 -73 -15
-48 5 -84 99 -180 102 -103 267 -305 336 -411 32 -50 45 -81 49 -117 4 -44 1
-52 -25 -79 -38 -37 -105 -57 -263 -77 -69 -9 -138 -23 -153 -31 -15 -7 -43
-36 -63 -63 -46 -64 -81 -77 -125 -44 -18 13 -34 24 -36 24 -2 0 -3 -12 -3
-26 0 -16 13 -39 35 -61 34 -34 38 -35 83 -29 26 3 84 24 128 45 45 21 95 42
113 46 39 8 91 -9 120 -39 26 -27 16 -39 -26 -34 -20 2 -30 -3 -39 -20 -18
-35 -21 -36 -54 -8 -17 14 -36 26 -41 26 -23 0 -47 -21 -54 -47 -11 -44 -24
-54 -62 -47 -32 6 -34 5 -50 -35 -14 -36 -20 -41 -39 -37 -19 5 -23 1 -28 -32
-9 -51 -26 -92 -39 -92 -6 0 -18 7 -28 16 -28 25 -45 11 -84 -71 -31 -65 -38
-75 -51 -64 -22 18 -35 -1 -41 -58 -6 -67 -15 -85 -23 -48 l-6 30 -16 -30 c-8
-16 -19 -41 -23 -53 -6 -21 -4 -23 14 -17 34 10 26 -18 -29 -108 -48 -78 -61
-117 -40 -117 6 0 23 18 38 40 21 31 32 39 49 35 24 -6 53 26 53 57 0 25 -14
23 -33 -5 l-16 -22 0 28 c-1 21 13 43 54 87 48 49 55 63 53 92 -2 41 18 94 39
102 12 5 14 1 8 -21 -3 -16 -10 -66 -13 -112 -5 -54 -12 -86 -19 -89 -7 -2
-13 4 -13 13 0 10 -6 15 -17 13 -15 -3 -18 -14 -18 -65 0 -54 -3 -65 -29 -92
-23 -24 -28 -36 -23 -60 5 -22 0 -42 -17 -72 -30 -51 -41 -37 -21 27 17 55 19
94 7 94 -5 0 -21 -22 -35 -49 -15 -27 -33 -54 -41 -60 -8 -7 -18 -38 -21 -69
-10 -87 -16 -112 -27 -112 -10 0 -9 23 8 138 5 34 4 42 -9 42 -37 0 -58 -151
-32 -229 9 -29 14 -55 11 -58 -13 -13 -27 15 -36 70 -10 66 -16 77 -36 77 -10
0 -14 -12 -14 -45 0 -35 -4 -45 -16 -45 -14 0 -16 8 -11 47 3 27 14 73 24 103
14 42 23 56 43 60 19 4 31 22 57 80 34 78 46 148 20 120 -8 -8 -26 -45 -41
-83 -34 -82 -51 -97 -43 -39 11 85 -29 51 -57 -48 -8 -30 -20 -74 -26 -97 -15
-59 -34 -57 -26 2 8 48 -5 61 -24 26 -19 -36 -12 -77 15 -89 28 -13 31 -24 11
-41 -11 -9 -15 -8 -20 5 -18 46 -49 -67 -50 -180 -1 -83 -14 -106 -34 -61 -17
37 -15 92 5 147 9 26 14 50 11 54 -21 20 -66 -65 -76 -144 -7 -55 -18 -68 -36
-39 -16 25 3 83 58 173 33 54 51 93 45 98 -5 6 -18 1 -32 -12 -32 -30 -40 -28
-32 8 4 18 2 30 -3 30 -16 0 -54 -65 -92 -158 -40 -97 -60 -115 -60 -54 0 29
7 49 26 71 30 36 47 88 32 97 -6 4 -18 -2 -27 -14 -9 -11 -25 -22 -36 -24 -12
-2 -23 -15 -29 -33 -21 -71 -24 -75 -61 -75 -28 0 -38 -5 -47 -25 -22 -49 -38
-23 -38 60 0 43 -5 60 -26 84 -33 39 -47 31 -28 -16 18 -43 4 -70 -20 -37 -13
17 -17 18 -48 5 -55 -22 -88 -25 -88 -8 0 9 4 19 10 22 16 10 12 19 -19 37
-60 33 -112 134 -81 153 17 10 36 -11 48 -53 16 -51 52 -84 88 -80 l29 3 -43
28 c-31 20 -42 34 -42 52 0 28 16 31 44 10 28 -21 36 -19 36 9 0 17 -16 37
-52 67 -28 24 -66 67 -84 96 -19 28 -60 72 -93 97 -67 52 -114 103 -105 117 7
13 33 -3 67 -40 15 -17 32 -31 37 -31 23 0 7 35 -40 84 -51 54 -56 71 -14 56
42 -16 28 15 -28 63 -53 46 -61 77 -18 77 11 0 20 5 20 10 0 6 -29 44 -65 85
-75 86 -88 124 -104 291 -11 125 -31 184 -89 276 -108 172 -161 341 -136 435
9 34 24 17 24 -27 0 -41 17 -90 32 -90 4 0 8 6 8 13 0 45 24 242 35 292 16 66
11 81 -14 47 -53 -74 -50 -75 -50 18 0 47 4 103 9 125 10 42 5 59 -11 35 -9
-15 -12 -26 -44 -142 -21 -79 -39 -76 -32 5 4 34 9 78 13 97 6 32 5 34 -10 20
-8 -8 -27 -42 -41 -75 l-26 -60 5 102 c6 120 32 206 100 333 50 94 57 137 26
165 -21 19 -26 60 -11 83 17 28 46 7 76 -55 17 -35 33 -63 37 -63 14 0 38 59
46 112 4 29 12 53 17 53 6 0 19 -19 31 -43 l20 -43 12 26 c7 14 12 42 12 62
l0 37 30 -29 30 -29 0 62 c0 34 4 62 10 62 8 0 28 -57 44 -132 4 -16 10 -28
15 -28 24 0 27 107 6 195 -8 33 -14 71 -14 85 l-1 25 20 -25 c11 -14 30 -55
41 -92 12 -38 25 -68 30 -68 23 0 33 60 32 188 -1 113 1 131 12 122 8 -7 20
-27 27 -45 12 -35 28 -38 28 -4 0 36 16 19 34 -37 10 -31 20 -53 23 -50 3 3 9
44 14 93 10 99 21 120 38 71 29 -84 77 -188 87 -188 12 0 19 42 30 185 l8 90
13 -45 c17 -58 34 -91 45 -84 4 3 8 37 8 75 0 73 13 85 24 23 6 -30 9 -34 22
-23 9 7 27 35 40 62 29 55 48 57 52 4 3 -33 5 -36 22 -27 11 6 25 29 31 53 13
45 26 67 40 67 5 0 9 -9 9 -19z m1440 -1116 c29 -26 76 -183 105 -347 32 -184
36 -198 88 -290 25 -42 52 -95 60 -117 23 -56 70 -247 105 -426 41 -206 46
-240 34 -262 -9 -16 -13 -12 -30 27 -23 54 -47 77 -115 110 -33 16 -53 33 -56
45 -4 25 -19 35 -54 35 -38 0 -70 18 -63 36 4 9 -7 20 -31 32 -61 29 -63 43
-17 109 45 65 64 111 64 157 0 63 -78 193 -200 335 -74 87 -75 90 -54 105 26
20 13 38 -59 80 -87 51 -163 118 -152 135 4 7 27 22 50 32 62 28 96 9 59 -32
-37 -41 27 -82 129 -83 48 -1 62 -4 62 -16 0 -9 -12 -17 -30 -20 -55 -9 -31
-25 43 -28 l72 -3 0 28 c0 16 -7 39 -16 51 -15 22 -14 24 10 47 32 29 35 65 6
65 -22 0 -27 19 -9 37 15 15 3 33 -22 33 -17 0 -19 4 -13 37 6 33 5 36 -15 30
-15 -4 -21 -1 -21 12 0 13 -8 18 -30 19 -52 1 -66 21 -27 40 30 16 104 8 127
-13z m-290 -108 c0 -15 -106 -87 -127 -87 -26 0 -8 24 47 63 56 39 80 46 80
24z m-2668 -1152 c99 -21 193 -69 259 -134 89 -87 90 -141 2 -141 -49 0 -71
10 -175 77 -90 58 -155 83 -217 83 -66 0 -99 -14 -112 -47 l-11 -28 -10 29
c-12 34 2 90 33 130 36 45 114 56 231 31z m2720 -125 c3 -30 7 -35 31 -38 16
-2 47 7 70 19 106 56 99 54 118 31 10 -14 29 -22 46 -22 16 0 36 -6 45 -12 17
-15 48 -59 48 -70 0 -20 -159 -79 -266 -98 -63 -12 -137 -28 -164 -37 -41 -13
-59 -14 -106 -5 -66 14 -86 6 -53 -19 21 -16 22 -18 6 -24 -24 -10 -100 3
-123 20 -19 13 -19 14 1 51 25 46 46 59 119 74 64 13 60 2 40 104 -10 54 15
45 34 -12 17 -52 49 -59 58 -12 6 25 10 29 30 24 19 -5 24 -1 29 23 4 15 9 34
11 42 7 23 22 0 26 -39z m-2604 -160 c62 -27 65 -43 16 -91 -76 -73 -70 -87
54 -125 78 -23 92 -31 140 -81 29 -31 64 -75 78 -99 15 -25 34 -49 44 -54 29
-15 97 -12 114 6 33 32 20 47 -104 117 -68 38 -89 66 -101 133 -18 94 -17 109
6 112 15 2 27 -8 43 -37 29 -51 97 -121 153 -157 66 -42 69 -48 69 -145 0 -87
0 -87 40 -135 135 -163 95 -265 -102 -264 -63 0 -117 23 -196 83 -31 23 -82
58 -112 77 -62 39 -120 88 -120 101 0 4 13 3 29 -2 36 -13 83 -8 88 8 7 20
-37 50 -99 68 -74 21 -130 69 -201 175 -28 41 -67 95 -87 120 -48 58 -100 140
-100 158 0 34 86 -26 130 -90 18 -26 37 -45 42 -42 6 4 7 40 3 89 -4 46 -4 89
0 95 11 19 112 7 173 -20z m3107 -85 c17 -16 25 -35 25 -60 0 -20 9 -53 20
-75 17 -33 19 -51 14 -117 -3 -43 -10 -91 -15 -107 -6 -19 -5 -33 2 -42 6 -8
8 -30 4 -56 -5 -34 -3 -47 9 -57 10 -8 14 -22 10 -36 -4 -16 1 -27 17 -39 30
-21 13 -44 -19 -27 -25 13 -42 14 -42 2 0 -5 14 -14 30 -21 17 -7 30 -20 30
-28 0 -12 -3 -13 -12 -4 -16 16 -38 15 -38 -1 0 -7 10 -21 22 -31 21 -18 21
-19 3 -32 -10 -8 -25 -14 -32 -14 -7 0 -31 -29 -54 -65 -22 -36 -53 -74 -67
-86 -24 -18 -28 -19 -38 -5 -16 22 -23 20 -34 -9 -11 -30 -30 -33 -30 -5 0 28
-26 25 -52 -5 -24 -28 -74 -45 -130 -45 -29 0 -41 6 -58 30 -32 45 -53 40 -45
-10 4 -26 3 -40 -4 -40 -6 0 -14 -1 -18 -1 -5 -1 -13 16 -19 37 -12 43 -33 56
-41 25 -9 -35 -28 -18 -25 22 3 37 -12 57 -30 39 -6 -6 -12 -41 -13 -77 -2
-65 -19 -105 -38 -86 -5 5 -5 17 2 29 16 29 15 30 -26 34 -20 2 -38 8 -40 14
-2 6 15 31 37 56 72 82 42 137 -32 61 -43 -44 -58 -79 -58 -132 0 -41 -21 -78
-38 -67 -7 4 -12 33 -12 67 0 49 7 74 37 136 28 57 34 79 26 92 -22 35 -40 24
-60 -36 -13 -38 -26 -59 -38 -62 -16 -3 -17 2 -10 40 13 73 12 93 -7 97 -12 2
-21 -6 -28 -22 -14 -39 -28 -31 -32 17 -5 64 -23 45 -23 -25 0 -34 -5 -63 -11
-65 -20 -7 -45 107 -38 175 5 42 3 62 -4 62 -6 0 -14 -5 -18 -11 -3 -6 -15 -9
-25 -6 -14 4 -22 -5 -35 -39 -21 -56 -34 -56 -34 0 0 32 11 65 40 120 22 41
40 78 40 81 0 4 -9 3 -20 0 -29 -9 -27 35 4 64 13 12 33 49 45 81 31 83 60
105 155 114 42 4 109 18 149 32 112 38 212 61 337 79 63 9 156 26 205 39 119
32 150 32 180 1z m-1199 -582 c4 -15 2 -52 -4 -83 -7 -31 -12 -74 -12 -96 0
-22 -6 -48 -13 -58 -12 -16 -14 -16 -26 -2 -11 12 -10 27 3 79 9 35 16 91 16
125 0 48 3 62 15 62 8 0 18 -12 21 -27z m79 -160 c-3 -16 -8 -61 -9 -100 -1
-52 -6 -78 -18 -89 -16 -17 -54 -12 -44 4 3 5 12 49 21 97 8 48 20 94 26 102
19 22 32 15 24 -14z m81 -147 c1 -75 -1 -87 -15 -84 -19 4 -26 67 -16 136 11
76 30 45 31 -52z m128 38 c8 -63 8 -104 -2 -104 -9 0 -33 130 -26 142 12 19
22 5 28 -38z"/>
<path d="M3196 3346 c-7 -30 -38 -41 -67 -26 -34 19 -79 14 -142 -15 -45 -21
-66 -25 -96 -20 -36 6 -43 3 -82 -32 -42 -38 -43 -38 -125 -38 -77 0 -84 -2
-108 -27 -18 -20 -35 -28 -58 -28 -25 0 -41 -8 -61 -31 -22 -25 -32 -30 -52
-25 -21 5 -29 1 -42 -22 -9 -16 -33 -37 -52 -48 -20 -10 -43 -33 -51 -51 -8
-17 -28 -42 -45 -54 -39 -30 -45 -39 -45 -69 0 -17 -15 -41 -46 -70 -35 -35
-44 -50 -41 -70 3 -14 1 -33 -5 -43 -23 -44 8 -26 75 44 40 40 85 82 101 93
15 10 32 31 38 47 12 34 42 52 116 68 29 6 67 18 83 27 17 8 38 13 46 10 12
-5 9 -14 -16 -44 -76 -90 -181 -260 -181 -291 0 -17 45 -13 62 7 8 9 28 41 44
71 42 80 170 211 244 250 56 30 60 31 60 12 0 -14 -17 -32 -52 -54 -61 -39
-151 -132 -208 -217 -44 -65 -46 -72 -26 -89 11 -9 29 -9 76 -1 80 14 110 29
110 52 0 16 -5 17 -40 12 -36 -6 -40 -4 -40 14 0 12 25 48 58 83 l58 62 47
-36 c60 -46 109 -60 159 -47 42 12 78 51 78 86 0 29 11 30 33 6 28 -31 20 -58
-30 -101 -37 -32 -45 -43 -34 -50 23 -15 68 8 106 55 28 34 43 44 66 44 40 0
38 26 -6 77 -58 68 -44 97 31 64 111 -49 117 -18 23 121 -22 31 -39 61 -39 67
0 14 28 28 106 52 68 21 114 55 114 85 0 9 -9 31 -20 49 -40 64 -112 88 -124
41z m-376 -491 c0 -28 -4 -35 -20 -35 -11 0 -30 10 -41 21 l-22 22 24 13 c43
24 59 18 59 -21z"/>
<path d="M4258 1575 c0 -6 -1 -17 -2 -25 -1 -9 -13 -16 -29 -18 -16 -2 -31
-11 -34 -20 -3 -9 -12 -32 -20 -49 l-14 -33 -38 20 c-21 10 -41 16 -45 13 -3
-4 -6 -22 -6 -41 0 -29 -3 -33 -17 -27 -48 20 -52 18 -55 -21 -4 -52 -28 -56
-53 -9 -23 41 -42 45 -51 9 -19 -74 51 -222 81 -173 4 5 1 24 -5 40 -7 16 -10
33 -6 36 3 4 29 -5 58 -20 28 -14 55 -24 59 -21 5 3 6 24 3 48 -6 38 -4 44 15
49 19 5 21 10 15 41 -7 40 -1 43 41 24 23 -10 28 -10 36 5 6 9 17 17 26 17 12
0 14 7 9 36 l-7 35 38 -3 c38 -3 38 -3 35 32 -3 32 -30 77 -34 55z"/>
</g>
</svg>
